<?xml version="1.0" encoding="utf-8"?>
<!-- Generator: Adobe Illustrator 24.0.3, SVG Export Plug-In . SVG Version: 6.00 Build 0)  -->
<svg version="1.1" id="Layer_1" xmlns="http://www.w3.org/2000/svg" xmlns:xlink="http://www.w3.org/1999/xlink" x="0px" y="0px"
	 viewBox="0 0 512 512" style="enable-background:new 0 0 512 512;" xml:space="preserve">
<style type="text/css">
	.st0{fill:#FFFFFF;}
</style>
<path class="st0" d="M449.9,6.6H143.5c-33.8,0-61.2,30.9-61.2,68.8v67.4h-0.4c-17.8,0-34.4,7.8-46.8,21.8L0,204v69.1l65.9-74
	c4.2-4.8,9.9-7.4,16-7.4h0.4v99.5c0,37.9,27.5,68.8,61.2,68.8h2.3c8.2,0,15.8-3.6,21.6-10.1l63.8-71.7c2.8-3.1,6.4-4.8,10.3-4.8l0,0
	c3.9,0,7.6,1.7,10.5,4.9c2.8,3.1,4.3,7.2,4.3,11.6s-1.5,8.6-4.3,11.7l-85,95.6l-0.6,0.7c-0.5,0.6-46.9,56-101.3,56
	c-27.4,0-49.2-5-65-10.7V494c17.7,5,39.5,8.8,65,8.8c71.6,0,127.5-64.8,133-71.3l63.6-71.5h188.2c33.8,0,61.2-30.9,61.2-68.8V75.4
	C511.1,37.4,483.6,6.6,449.9,6.6z M143.5,55.5h306.4c9.8,0,17.7,8.9,17.7,19.9v55.5H125.8V75.4C125.8,64.4,133.8,55.5,143.5,55.5z
	 M449.9,311.1H296.8c2-6.8,3.1-13.9,3.1-21.3c0-17.5-6.1-33.9-17.1-46.2c-11-12.4-25.6-19.2-41.2-19.2c0,0,0,0-0.1,0
	c-15.6,0-30.2,6.8-41.1,19.2l-59.8,67.2c-8.4-1.5-14.9-9.8-14.9-19.7v-99h341.8v99C467.6,302.1,459.7,311.1,449.9,311.1z"/>
</svg>
