<?xml version="1.0" encoding="utf-8"?>
<!-- Generator: Adobe Illustrator 24.0.2, SVG Export Plug-In . SVG Version: 6.00 Build 0)  -->
<svg version="1.1" id="Layer_1" xmlns="http://www.w3.org/2000/svg" xmlns:xlink="http://www.w3.org/1999/xlink" x="0px" y="0px"
	 viewBox="0 0 1147.4 1097.2" style="enable-background:new 0 0 1147.4 1097.2;" xml:space="preserve">
<style type="text/css">
	.st0{fill:#666666;}
	.st1{fill:none;stroke:#666666;stroke-width:60.6923;stroke-miterlimit:10;}
	.st2{fill:#FFFFFF;stroke:#666666;stroke-width:60;stroke-miterlimit:10;}
	.st3{fill:none;stroke:#666666;stroke-width:60;stroke-miterlimit:10;}
</style>
<circle class="st0" cx="-3497.9" cy="3631.5" r="40.2"/>
<g>
	<path class="st0" d="M-563.4,460.8h-1.1V343.6c0-84.7-69.3-153.7-154.4-153.8l-75.3-124c-25.5-42-79.7-57.1-123.4-34.5
		c-102.4,53-227.4,118-305.1,158.5h-240.2c-85.2,0-154.6,69-154.6,153.8v554.9c0,84.8,69.4,153.8,154.6,153.8h743.8
		c85.3,0,154.6-69,154.6-153.8V781.4h1.1c51.5,0,93.3-41.7,93.3-92.9V553.6C-470.1,502.4-512,460.8-563.4,460.8z M-891.1,81.9
		c16.9-8.8,37.9-2.9,47.8,13.4l57.4,94.6H-1099C-1032.8,155.4-957.2,116.2-891.1,81.9z M-656.9,898.5c0,34.1-27.9,61.9-62.2,61.9
		h-743.8c-34.3,0-62.2-27.8-62.2-61.9V343.6c0-34.1,27.9-61.9,62.2-61.9h743.8c34.3,0,62.2,27.8,62.2,61.9v117.1h-108.6
		c-88.9,0-161.2,71.9-161.2,160.3s72.3,160.4,161.2,160.4h108.6V898.5z M-527.4,688.5c0,19.7-16.2,35.8-36,35.8h-202.1
		c-57.2,0-103.8-46.3-103.8-103.3s46.6-103.2,103.8-103.2h202.1c19.9,0,36,16.1,36,35.8V688.5z"/>
	<ellipse class="st0" cx="-750.4" cy="621.1" rx="39.1" ry="38.9"/>
</g>
<image style="overflow:visible;" width="1410" height="914" xlink:href="Screen Shot 2020-01-17 at 12.04.55.png"  transform="matrix(1.1043 0 0 1.1043 -217.0047 1282.3123)">
</image>
<path class="st1" d="M-53,477.3h199.3c32.8,0,59.5,26.6,59.5,59.5v346.8c0,32.8-26.6,59.5-59.5,59.5H-53V477.3z"/>
<rect x="459.6" y="317.4" class="st0" width="661.7" height="110.7"/>
<path class="st1" d="M615.5,396.5H421.3c-20.3,0-39.7,8-54,22.4L205.7,580.4v267.8c0,0,64.8,47.1,186.7,47.1
	c111.8,0,201.5-97.6,201.5-97.6l146.1-146.1c24.5-24.5,24.5-64.2,0-88.6l0,0c-24.5-24.5-64.2-24.5-88.6,0l-114,114h-10.2h-15.1
	c-29.1,0-52.7-23.6-52.7-52.7V264.4c0-29.1,23.6-52.7,52.7-52.7h556.4c29.1,0,52.7,23.6,52.7,52.7v359.9c0,29.1-23.6,52.7-52.7,52.7
	H721.9"/>
<path class="st2" d="M2470.8,680h-550c-28.8,0-52.1-23.3-52.1-52.1V272.1c0-28.8,23.3-52.1,52.1-52.1h550
	c28.8,0,52.1,23.3,52.1,52.1v355.8C2522.8,656.7,2499.5,680,2470.8,680z"/>
<path class="st3" d="M1361.9,482.6h197c32.5,0,58.8,26.3,58.8,58.8v342.9c0,32.5-26.3,58.8-58.8,58.8h-197V482.6z"/>
<rect x="1868.7" y="324.5" class="st0" width="654.1" height="109.4"/>
<path class="st3" d="M1945.7,680l112.7-112.7c24.2-24.2,63.4-24.2,87.6,0l0,0c24.2,24.2,24.2,63.4,0,87.6l-144.5,144.5
	c0,0-88.7,96.5-199.2,96.5c-120.6,0-184.6-46.6-184.6-46.6V584.6l159.7-159.7c14.2-14.2,33.4-22.1,53.4-22.1h192"/>
</svg>
