<?xml version="1.0" encoding="utf-8"?>
<!-- Generator: Adobe Illustrator 24.0.3, SVG Export Plug-In . SVG Version: 6.00 Build 0)  -->
<svg version="1.1" id="Layer_1" xmlns="http://www.w3.org/2000/svg" xmlns:xlink="http://www.w3.org/1999/xlink" x="0px" y="0px"
	 viewBox="0 0 512 512" style="enable-background:new 0 0 512 512;" xml:space="preserve">
<style type="text/css">
	.st0{fill:#FFFFFF;}
</style>
	<g>
	<path class="st0" d="M477.8,406.3l33.7,33c-44.2,47.7-108.1,72.3-181,72.3c-124.2,0-221.7-75.8-249.1-185.9H0v-30.9l75.8,0
		c-1.4-10.5-2.1-21.8-2.1-33c0-11.2,0.7-22.5,2.1-33H0v-30.9h81.4C108.8,87.8,206.3,12,330.5,12c73,0,136.8,23.9,181,71.6l-33.7,33
		c-40-40.7-89.1-58.2-144.5-58.2c-96.1,0-172.6,56.8-197.9,139.6h240.7v30.9l-248.4,0c-1.4,10.5-2.1,21.8-2.1,33
		c0,11.2,0.7,22.5,2.1,33h248.4v30.9H135.4c25.3,82.8,101.7,139.6,197.9,139.6C388.7,465.3,437.9,447.7,477.8,406.3z"/>
</g>
</svg>
