<?xml version="1.0" encoding="utf-8"?>
<!-- Generator: Adobe Illustrator 24.0.3, SVG Export Plug-In . SVG Version: 6.00 Build 0)  -->
<svg version="1.1" id="Layer_1" xmlns="http://www.w3.org/2000/svg" xmlns:xlink="http://www.w3.org/1999/xlink" x="0px" y="0px"
	 viewBox="0 0 512 512" style="enable-background:new 0 0 512 512;" xml:space="preserve">
<style type="text/css">
	.st0{fill:#FFFFFF;}
</style>
<path class="st0" d="M512.5,219.3c-0.3-2.3-1.4-4.4-3.3-5.8L467.5,181V92.8c0-4.8-4.1-8.7-9-8.7h-30.1c-5,0-9,3.9-9,8.7v50.8
	l-139-108.1c-14.3-11.2-35.2-11.2-49.5,0l-229,178c-1.9,1.5-3,3.5-3.3,5.9c-0.2,2.3,0.5,4.6,2,6.4l19.1,22.1
	c3.2,3.7,8.8,4.2,12.7,1.2l11.3-8.8V471c0,8.7,7.4,15.8,16.6,15.8H218c5,0,9-3.9,9-8.7V338h57v140.1c0,4.8,4.1,8.7,9,8.7h158
	c9.1,0,16.6-7.1,16.6-15.8V240.2l11.3,8.8c3.8,3,9.5,2.5,12.7-1.2l19.1-22.2C512.1,223.9,512.8,221.6,512.5,219.3z M323.1,292.1
	H187.9c-5,0-9,3.9-9,8.7v140.1H91.7V202.8l160-124.4c2.2-1.7,5.4-1.7,7.6,0l159.9,124.4v238.1h-87V300.8
	C332.2,296,328.1,292.1,323.1,292.1z"/>
</svg>
