<?xml version="1.0" encoding="utf-8"?>
<!-- Generator: Adobe Illustrator 24.0.3, SVG Export Plug-In . SVG Version: 6.00 Build 0)  -->
<svg version="1.1" id="Layer_1" xmlns="http://www.w3.org/2000/svg" xmlns:xlink="http://www.w3.org/1999/xlink" x="0px" y="0px"
	 viewBox="0 0 512 512" style="enable-background:new 0 0 512 512;" xml:space="preserve">
<style type="text/css">
	.st0{fill:#666666;}
</style>
	<path class="st0" d="M504.3,298.5c-10.7-17.6-27.2-29.9-47.6-35.8l-6.1-1.7c14.9-23.7,18.2-47.3,18.2-63.5
	c0-66.1-53.8-119.9-119.9-119.9c-21,0-40.6,5.4-57.8,14.9c-24.4-34-64.3-56.1-109.2-56.1c-74.1,0-134.4,60.3-134.4,134.4
	c0,18.3,3.8,45.1,20.9,72l-7.8,2.2c-22.7,6.5-41,20.2-53,39.8c-9.2,15-14.5,33.1-14.5,49.7v116.4c0,33.7,27.4,61.1,61.1,61.1h181.4
	h74h152.7c30.3,0,54.9-24.6,54.9-54.9V342.8C517.2,335.7,515.9,317.4,504.3,298.5z M348.9,119c43.2,0,78.4,35.2,78.4,78.4
	c0,42.8-34.5,77.8-77.2,78.4c-11.7-14.9-27.8-25.5-46.9-30.9l-7.8-2.2c17.1-26.9,20.9-53.7,20.9-72c0-14.4-2.3-28.3-6.5-41.3
	C321.4,122.8,334.7,119,348.9,119z M181.9,81.7c30.9,0,58.2,15.9,74.2,39.9c9.4,14.1,14.8,31,14.8,49.1c0,4.6-0.4,9.1-1,13.5
	c-3.5,22.8-15.6,42.7-33,56.4c-15.2,12-34.3,19.1-55,19.1c-49.1,0-89-39.9-89-89C92.9,121.6,132.8,81.7,181.9,81.7z M54.3,466.5
	c-8.7,0-15.8-7.1-15.8-15.8V334.3c0-21.2,14.2-40,34.6-45.8l30.4-8.7c14.1,10.1,41.3,25.2,78.4,25.2c6.7,0,13-0.5,19.1-1.4
	c27.4-3.9,47.8-15.6,59.3-23.9l30.4,8.7c13.4,3.8,24.2,13.3,29.9,25.4c3,6.3,4.7,13.2,4.7,20.5v116.4c0,8.7-7.1,15.8-15.8,15.8H226
	h-44.6L54.3,466.5L54.3,466.5z M475.5,458.4c-0.7,6.7-6.4,12-13.3,12h-94.7c2.1-6.2,3.2-12.8,3.2-19.6V334.4
	c0-3.8-0.3-10.5-2.1-18.7c21.7-3.6,38.4-12.5,49.9-20.7l26.7,7.6c17.8,5.1,30.2,21.6,30.2,40.1L475.5,458.4L475.5,458.4z"/>
</svg>
