<?xml version="1.0" encoding="utf-8"?>
<!-- Generator: Adobe Illustrator 24.0.2, SVG Export Plug-In . SVG Version: 6.00 Build 0)  -->
<svg version="1.1" id="Layer_1" xmlns="http://www.w3.org/2000/svg" xmlns:xlink="http://www.w3.org/1999/xlink" x="0px" y="0px"
	 viewBox="0 0 716.4 512" style="enable-background:new 0 0 716.4 512;" xml:space="preserve">
<style type="text/css">
	.st0{fill:#666666;}
</style>
<path class="st0" d="M423.3,291l-21.1-6c29.6-41.1,33.8-82.7,33.8-105C436,80.6,355.5,0,256,0C156.6,0,76,80.5,76,180
	c0,22.3,4.2,63.9,33.8,105l-21.1,6C21.3,310.3,0,371.6,0,408.6v25.7C0,477.1,34.9,512,77.7,512h356.6c42.9,0,77.7-34.9,77.7-77.7
	v-25.7C512,372.4,491.3,310.4,423.3,291L423.3,291z M256,48c72.9,0,132,59.1,132,132s-59.1,132-132,132s-132-59.1-132-132
	S183.1,48,256,48z M464,434.3c0,16.4-13.3,29.7-29.7,29.7H77.7C61.3,464,48,450.7,48,434.3v-25.7c0-33.2,22-62.3,53.9-71.4L148,324
	c14.7,11.1,52.4,36,108,36s93.3-24.9,108-36l46.1,13.2c31.9,9.1,53.9,38.3,53.9,71.4V434.3z"/>
<g>
	<path class="st0" d="M637.7,315.9l-18.7-5.3c26.3-36.5,30-73.4,30-93.2c0-88.2-71.5-159.8-159.8-159.8
		c-40.9,0-78.2,15.4-106.5,40.7l19.7,40.3c21.4-23.6,52.3-38.4,86.7-38.4c64.7,0,117.2,52.5,117.2,117.2s-52.5,117.2-117.2,117.2
		c-17.5,0-34.1-3.9-49.1-10.7l37.4,52.9c3.8,0.3,7.6,0.4,11.6,0.4c49.3,0,82.8-22.1,95.9-31.9l40.9,11.7c28.3,8.1,47.8,34,47.8,63.4
		V443c0,14.6-11.8,26.4-26.4,26.4H460.1l-10.2,11.8L355.4,512h292c38,0,69-30.9,69-69v-22.8C716.4,388.1,698,333.1,637.7,315.9z"/>
</g>
</svg>
