<?xml version="1.0" encoding="utf-8"?>
<!-- Generator: Adobe Illustrator 23.0.6, SVG Export Plug-In . SVG Version: 6.00 Build 0)  -->
<svg version="1.1" id="Layer_1" xmlns="http://www.w3.org/2000/svg" xmlns:xlink="http://www.w3.org/1999/xlink" x="0px" y="0px"
	 viewBox="0 0 1147.4 1097.2" style="enable-background:new 0 0 1147.4 1097.2;" xml:space="preserve">
<style type="text/css">
	.st0{fill:#666666;}
</style>
<circle class="st0" cx="-1880.4" cy="3631.5" r="40.2"/>
<g>
	<path class="st0" d="M1054.1,460.8h-1.1V343.6c0-84.7-69.3-153.7-154.4-153.8L823.3,65.8c-25.5-42-79.7-57.1-123.4-34.5
		c-102.4,53-227.4,118-305.1,158.5H154.6C69.4,189.8,0,258.8,0,343.6v554.9c0,84.8,69.4,153.8,154.6,153.8h743.8
		c85.3,0,154.6-69,154.6-153.8V781.4h1.1c51.5,0,93.3-41.7,93.3-92.9V553.6C1147.4,502.4,1105.5,460.8,1054.1,460.8z M726.4,81.9
		c16.9-8.8,37.9-2.9,47.8,13.4l57.4,94.6H518.5C584.7,155.4,660.3,116.2,726.4,81.9z M960.6,898.5c0,34.1-27.9,61.9-62.2,61.9H154.6
		c-34.3,0-62.2-27.8-62.2-61.9V343.6c0-34.1,27.9-61.9,62.2-61.9h743.8c34.3,0,62.2,27.8,62.2,61.9v117.1H852
		c-88.9,0-161.2,71.9-161.2,160.3S763.1,781.4,852,781.4h108.6V898.5z M1090.1,688.5c0,19.7-16.2,35.8-36,35.8H852
		c-57.2,0-103.8-46.3-103.8-103.3S794.8,517.8,852,517.8h202.1c19.9,0,36,16.1,36,35.8V688.5z"/>
	<ellipse class="st0" cx="867.1" cy="621.1" rx="39.1" ry="38.9"/>
</g>
</svg>
